<mxfile host="app.diagrams.net" modified="2021-07-07T09:03:27.213Z" agent="5.0 (Windows NT 10.0; Win64; x64) AppleWebKit/537.36 (KHTML, like Gecko) Chrome/91.0.4472.124 Safari/537.36" etag="aXJNKtPnZVM63qSMq7sE" version="14.7.0" type="github">
  <diagram id="C5RBs43oDa-KdzZeNtuy" name="Page-1">
    <mxGraphModel dx="2500" dy="896" grid="1" gridSize="10" guides="1" tooltips="1" connect="1" arrows="1" fold="1" page="1" pageScale="1" pageWidth="827" pageHeight="1169" math="0" shadow="0">
      <root>
        <mxCell id="WIyWlLk6GJQsqaUBKTNV-0" />
        <mxCell id="WIyWlLk6GJQsqaUBKTNV-1" parent="WIyWlLk6GJQsqaUBKTNV-0" />
        <mxCell id="2HKD_gltTXgtxPYkwOB--66" style="edgeStyle=orthogonalEdgeStyle;rounded=0;orthogonalLoop=1;jettySize=auto;html=1;exitX=0.5;exitY=1;exitDx=0;exitDy=0;entryX=0.5;entryY=0;entryDx=0;entryDy=0;" edge="1" parent="WIyWlLk6GJQsqaUBKTNV-1" source="WIyWlLk6GJQsqaUBKTNV-3" target="2HKD_gltTXgtxPYkwOB--2">
          <mxGeometry relative="1" as="geometry" />
        </mxCell>
        <mxCell id="WIyWlLk6GJQsqaUBKTNV-3" value="上电开机" style="rounded=1;whiteSpace=wrap;html=1;fontSize=12;glass=0;strokeWidth=1;shadow=0;" parent="WIyWlLk6GJQsqaUBKTNV-1" vertex="1">
          <mxGeometry x="270" y="50" width="120" height="40" as="geometry" />
        </mxCell>
        <mxCell id="2HKD_gltTXgtxPYkwOB--67" style="edgeStyle=orthogonalEdgeStyle;rounded=0;orthogonalLoop=1;jettySize=auto;html=1;exitX=0.5;exitY=1;exitDx=0;exitDy=0;entryX=0.5;entryY=0;entryDx=0;entryDy=0;" edge="1" parent="WIyWlLk6GJQsqaUBKTNV-1" source="2HKD_gltTXgtxPYkwOB--2" target="2HKD_gltTXgtxPYkwOB--3">
          <mxGeometry relative="1" as="geometry" />
        </mxCell>
        <mxCell id="2HKD_gltTXgtxPYkwOB--68" style="edgeStyle=orthogonalEdgeStyle;rounded=0;orthogonalLoop=1;jettySize=auto;html=1;exitX=0.5;exitY=1;exitDx=0;exitDy=0;entryX=0.5;entryY=0;entryDx=0;entryDy=0;" edge="1" parent="WIyWlLk6GJQsqaUBKTNV-1" source="2HKD_gltTXgtxPYkwOB--2" target="2HKD_gltTXgtxPYkwOB--64">
          <mxGeometry relative="1" as="geometry" />
        </mxCell>
        <mxCell id="2HKD_gltTXgtxPYkwOB--2" value="人员检测" style="rounded=1;whiteSpace=wrap;html=1;flipH=1;flipV=0;" vertex="1" parent="WIyWlLk6GJQsqaUBKTNV-1">
          <mxGeometry x="270" y="150" width="120" height="60" as="geometry" />
        </mxCell>
        <mxCell id="2HKD_gltTXgtxPYkwOB--13" value="yes" style="edgeStyle=orthogonalEdgeStyle;rounded=0;orthogonalLoop=1;jettySize=auto;html=1;exitX=0.5;exitY=1;exitDx=0;exitDy=0;entryX=0.5;entryY=0;entryDx=0;entryDy=0;labelBorderColor=none;" edge="1" parent="WIyWlLk6GJQsqaUBKTNV-1" source="2HKD_gltTXgtxPYkwOB--3" target="2HKD_gltTXgtxPYkwOB--6">
          <mxGeometry relative="1" as="geometry">
            <mxPoint as="offset" />
          </mxGeometry>
        </mxCell>
        <mxCell id="2HKD_gltTXgtxPYkwOB--70" value="no" style="edgeStyle=orthogonalEdgeStyle;rounded=0;orthogonalLoop=1;jettySize=auto;html=1;exitX=0;exitY=0.5;exitDx=0;exitDy=0;entryX=0;entryY=0.5;entryDx=0;entryDy=0;" edge="1" parent="WIyWlLk6GJQsqaUBKTNV-1" source="2HKD_gltTXgtxPYkwOB--3" target="2HKD_gltTXgtxPYkwOB--2">
          <mxGeometry x="-0.3962" relative="1" as="geometry">
            <mxPoint as="offset" />
          </mxGeometry>
        </mxCell>
        <mxCell id="2HKD_gltTXgtxPYkwOB--3" value="雷达感应接近?" style="rhombus;whiteSpace=wrap;html=1;flipH=1;flipV=0;" vertex="1" parent="WIyWlLk6GJQsqaUBKTNV-1">
          <mxGeometry x="165" y="260" width="110" height="80" as="geometry" />
        </mxCell>
        <mxCell id="2HKD_gltTXgtxPYkwOB--27" style="edgeStyle=orthogonalEdgeStyle;rounded=0;orthogonalLoop=1;jettySize=auto;html=1;exitX=0.5;exitY=1;exitDx=0;exitDy=0;entryX=0.5;entryY=0;entryDx=0;entryDy=0;" edge="1" parent="WIyWlLk6GJQsqaUBKTNV-1" source="2HKD_gltTXgtxPYkwOB--6" target="2HKD_gltTXgtxPYkwOB--26">
          <mxGeometry relative="1" as="geometry" />
        </mxCell>
        <mxCell id="2HKD_gltTXgtxPYkwOB--6" value="上盖掀起" style="rounded=1;whiteSpace=wrap;html=1;" vertex="1" parent="WIyWlLk6GJQsqaUBKTNV-1">
          <mxGeometry x="160" y="380" width="120" height="60" as="geometry" />
        </mxCell>
        <mxCell id="2HKD_gltTXgtxPYkwOB--25" style="edgeStyle=orthogonalEdgeStyle;rounded=0;orthogonalLoop=1;jettySize=auto;html=1;exitX=0.5;exitY=1;exitDx=0;exitDy=0;entryX=0.5;entryY=0;entryDx=0;entryDy=0;" edge="1" parent="WIyWlLk6GJQsqaUBKTNV-1" source="2HKD_gltTXgtxPYkwOB--16" target="2HKD_gltTXgtxPYkwOB--24">
          <mxGeometry relative="1" as="geometry" />
        </mxCell>
        <mxCell id="2HKD_gltTXgtxPYkwOB--16" value="关闭座圈加热" style="rounded=1;whiteSpace=wrap;html=1;" vertex="1" parent="WIyWlLk6GJQsqaUBKTNV-1">
          <mxGeometry x="160" y="680" width="120" height="60" as="geometry" />
        </mxCell>
        <mxCell id="2HKD_gltTXgtxPYkwOB--20" value="yes" style="edgeStyle=orthogonalEdgeStyle;rounded=0;orthogonalLoop=1;jettySize=auto;html=1;exitX=0.5;exitY=1;exitDx=0;exitDy=0;" edge="1" parent="WIyWlLk6GJQsqaUBKTNV-1" source="2HKD_gltTXgtxPYkwOB--18" target="2HKD_gltTXgtxPYkwOB--16">
          <mxGeometry relative="1" as="geometry" />
        </mxCell>
        <mxCell id="2HKD_gltTXgtxPYkwOB--18" value="脚踢开关触发?" style="rhombus;whiteSpace=wrap;html=1;flipH=1;flipV=0;" vertex="1" parent="WIyWlLk6GJQsqaUBKTNV-1">
          <mxGeometry x="165" y="560" width="110" height="80" as="geometry" />
        </mxCell>
        <mxCell id="2HKD_gltTXgtxPYkwOB--23" value="着座感应" style="rhombus;whiteSpace=wrap;html=1;flipH=1;flipV=0;" vertex="1" parent="WIyWlLk6GJQsqaUBKTNV-1">
          <mxGeometry x="390" y="560" width="110" height="80" as="geometry" />
        </mxCell>
        <mxCell id="2HKD_gltTXgtxPYkwOB--30" style="edgeStyle=orthogonalEdgeStyle;rounded=0;orthogonalLoop=1;jettySize=auto;html=1;exitX=0.5;exitY=1;exitDx=0;exitDy=0;entryX=0.5;entryY=0;entryDx=0;entryDy=0;" edge="1" parent="WIyWlLk6GJQsqaUBKTNV-1" source="2HKD_gltTXgtxPYkwOB--24" target="2HKD_gltTXgtxPYkwOB--29">
          <mxGeometry relative="1" as="geometry" />
        </mxCell>
        <mxCell id="2HKD_gltTXgtxPYkwOB--24" value="座圈掀起" style="rounded=1;whiteSpace=wrap;html=1;" vertex="1" parent="WIyWlLk6GJQsqaUBKTNV-1">
          <mxGeometry x="160" y="770" width="120" height="60" as="geometry" />
        </mxCell>
        <mxCell id="2HKD_gltTXgtxPYkwOB--28" style="edgeStyle=orthogonalEdgeStyle;rounded=0;orthogonalLoop=1;jettySize=auto;html=1;exitX=0.5;exitY=1;exitDx=0;exitDy=0;entryX=0.5;entryY=0;entryDx=0;entryDy=0;" edge="1" parent="WIyWlLk6GJQsqaUBKTNV-1" source="2HKD_gltTXgtxPYkwOB--26" target="2HKD_gltTXgtxPYkwOB--18">
          <mxGeometry relative="1" as="geometry" />
        </mxCell>
        <mxCell id="2HKD_gltTXgtxPYkwOB--26" value="开启座圈加热" style="rounded=1;whiteSpace=wrap;html=1;" vertex="1" parent="WIyWlLk6GJQsqaUBKTNV-1">
          <mxGeometry x="160" y="470" width="120" height="60" as="geometry" />
        </mxCell>
        <mxCell id="2HKD_gltTXgtxPYkwOB--32" value="yes" style="edgeStyle=orthogonalEdgeStyle;rounded=0;orthogonalLoop=1;jettySize=auto;html=1;exitX=0.5;exitY=1;exitDx=0;exitDy=0;entryX=0.5;entryY=0;entryDx=0;entryDy=0;" edge="1" parent="WIyWlLk6GJQsqaUBKTNV-1" source="2HKD_gltTXgtxPYkwOB--29" target="2HKD_gltTXgtxPYkwOB--31">
          <mxGeometry relative="1" as="geometry" />
        </mxCell>
        <mxCell id="2HKD_gltTXgtxPYkwOB--29" value="冲水按钮是否按下" style="rhombus;whiteSpace=wrap;html=1;flipH=1;flipV=0;" vertex="1" parent="WIyWlLk6GJQsqaUBKTNV-1">
          <mxGeometry x="147.5" y="860" width="145" height="80" as="geometry" />
        </mxCell>
        <mxCell id="2HKD_gltTXgtxPYkwOB--45" style="edgeStyle=orthogonalEdgeStyle;rounded=0;orthogonalLoop=1;jettySize=auto;html=1;exitX=0.5;exitY=1;exitDx=0;exitDy=0;entryX=0.5;entryY=0;entryDx=0;entryDy=0;" edge="1" parent="WIyWlLk6GJQsqaUBKTNV-1" source="2HKD_gltTXgtxPYkwOB--31" target="2HKD_gltTXgtxPYkwOB--44">
          <mxGeometry relative="1" as="geometry" />
        </mxCell>
        <mxCell id="2HKD_gltTXgtxPYkwOB--31" value="冲水开始(定时结束)" style="rounded=1;whiteSpace=wrap;html=1;" vertex="1" parent="WIyWlLk6GJQsqaUBKTNV-1">
          <mxGeometry x="160" y="990" width="120" height="60" as="geometry" />
        </mxCell>
        <mxCell id="2HKD_gltTXgtxPYkwOB--47" value="yes" style="edgeStyle=orthogonalEdgeStyle;rounded=0;orthogonalLoop=1;jettySize=auto;html=1;exitX=0.5;exitY=1;exitDx=0;exitDy=0;entryX=0.5;entryY=0;entryDx=0;entryDy=0;" edge="1" parent="WIyWlLk6GJQsqaUBKTNV-1" source="2HKD_gltTXgtxPYkwOB--44" target="2HKD_gltTXgtxPYkwOB--46">
          <mxGeometry relative="1" as="geometry" />
        </mxCell>
        <mxCell id="2HKD_gltTXgtxPYkwOB--44" value="雷达感应远离?" style="rhombus;whiteSpace=wrap;html=1;flipH=1;flipV=0;" vertex="1" parent="WIyWlLk6GJQsqaUBKTNV-1">
          <mxGeometry x="165" y="1089" width="110" height="80" as="geometry" />
        </mxCell>
        <mxCell id="2HKD_gltTXgtxPYkwOB--51" style="edgeStyle=orthogonalEdgeStyle;rounded=0;orthogonalLoop=1;jettySize=auto;html=1;exitX=0.5;exitY=1;exitDx=0;exitDy=0;entryX=0.5;entryY=0;entryDx=0;entryDy=0;" edge="1" parent="WIyWlLk6GJQsqaUBKTNV-1" source="2HKD_gltTXgtxPYkwOB--46" target="2HKD_gltTXgtxPYkwOB--48">
          <mxGeometry relative="1" as="geometry" />
        </mxCell>
        <mxCell id="2HKD_gltTXgtxPYkwOB--46" value="计时30S开始" style="rounded=1;whiteSpace=wrap;html=1;" vertex="1" parent="WIyWlLk6GJQsqaUBKTNV-1">
          <mxGeometry x="160" y="1210" width="120" height="60" as="geometry" />
        </mxCell>
        <mxCell id="2HKD_gltTXgtxPYkwOB--52" value="yes" style="edgeStyle=orthogonalEdgeStyle;rounded=0;orthogonalLoop=1;jettySize=auto;html=1;exitX=0;exitY=0.5;exitDx=0;exitDy=0;entryX=0;entryY=0.5;entryDx=0;entryDy=0;" edge="1" parent="WIyWlLk6GJQsqaUBKTNV-1" source="2HKD_gltTXgtxPYkwOB--48" target="2HKD_gltTXgtxPYkwOB--46">
          <mxGeometry relative="1" as="geometry">
            <Array as="points">
              <mxPoint x="120" y="1340" />
              <mxPoint x="120" y="1240" />
            </Array>
          </mxGeometry>
        </mxCell>
        <mxCell id="2HKD_gltTXgtxPYkwOB--55" value="no" style="edgeStyle=orthogonalEdgeStyle;rounded=0;orthogonalLoop=1;jettySize=auto;html=1;exitX=0.5;exitY=1;exitDx=0;exitDy=0;entryX=0.5;entryY=0;entryDx=0;entryDy=0;" edge="1" parent="WIyWlLk6GJQsqaUBKTNV-1" source="2HKD_gltTXgtxPYkwOB--48" target="2HKD_gltTXgtxPYkwOB--54">
          <mxGeometry relative="1" as="geometry" />
        </mxCell>
        <mxCell id="2HKD_gltTXgtxPYkwOB--48" value="雷达感应有人?" style="rhombus;whiteSpace=wrap;html=1;flipH=1;flipV=0;" vertex="1" parent="WIyWlLk6GJQsqaUBKTNV-1">
          <mxGeometry x="165" y="1300" width="110" height="80" as="geometry" />
        </mxCell>
        <mxCell id="2HKD_gltTXgtxPYkwOB--58" value="yes" style="edgeStyle=orthogonalEdgeStyle;rounded=0;orthogonalLoop=1;jettySize=auto;html=1;exitX=0.5;exitY=1;exitDx=0;exitDy=0;entryX=0.5;entryY=0;entryDx=0;entryDy=0;" edge="1" parent="WIyWlLk6GJQsqaUBKTNV-1" source="2HKD_gltTXgtxPYkwOB--54" target="2HKD_gltTXgtxPYkwOB--56">
          <mxGeometry relative="1" as="geometry" />
        </mxCell>
        <mxCell id="2HKD_gltTXgtxPYkwOB--60" value="no" style="edgeStyle=orthogonalEdgeStyle;rounded=0;orthogonalLoop=1;jettySize=auto;html=1;exitX=0;exitY=0.5;exitDx=0;exitDy=0;entryX=1;entryY=0.5;entryDx=0;entryDy=0;" edge="1" parent="WIyWlLk6GJQsqaUBKTNV-1" source="2HKD_gltTXgtxPYkwOB--54" target="2HKD_gltTXgtxPYkwOB--59">
          <mxGeometry relative="1" as="geometry" />
        </mxCell>
        <mxCell id="2HKD_gltTXgtxPYkwOB--54" value="30S计时结束?" style="rhombus;whiteSpace=wrap;html=1;flipH=1;flipV=0;" vertex="1" parent="WIyWlLk6GJQsqaUBKTNV-1">
          <mxGeometry x="165" y="1420" width="110" height="80" as="geometry" />
        </mxCell>
        <mxCell id="2HKD_gltTXgtxPYkwOB--62" style="edgeStyle=orthogonalEdgeStyle;rounded=0;orthogonalLoop=1;jettySize=auto;html=1;exitX=0.5;exitY=1;exitDx=0;exitDy=0;entryX=0.5;entryY=0;entryDx=0;entryDy=0;" edge="1" parent="WIyWlLk6GJQsqaUBKTNV-1" source="2HKD_gltTXgtxPYkwOB--56" target="2HKD_gltTXgtxPYkwOB--57">
          <mxGeometry relative="1" as="geometry" />
        </mxCell>
        <mxCell id="2HKD_gltTXgtxPYkwOB--56" value="合上座圈" style="rounded=1;whiteSpace=wrap;html=1;" vertex="1" parent="WIyWlLk6GJQsqaUBKTNV-1">
          <mxGeometry x="160" y="1540" width="120" height="60" as="geometry" />
        </mxCell>
        <mxCell id="2HKD_gltTXgtxPYkwOB--63" style="edgeStyle=orthogonalEdgeStyle;rounded=0;orthogonalLoop=1;jettySize=auto;html=1;exitX=0;exitY=0.5;exitDx=0;exitDy=0;entryX=0;entryY=0.5;entryDx=0;entryDy=0;" edge="1" parent="WIyWlLk6GJQsqaUBKTNV-1" source="2HKD_gltTXgtxPYkwOB--57" target="2HKD_gltTXgtxPYkwOB--2">
          <mxGeometry relative="1" as="geometry">
            <Array as="points">
              <mxPoint x="-100" y="1670" />
              <mxPoint x="-100" y="180" />
            </Array>
          </mxGeometry>
        </mxCell>
        <mxCell id="2HKD_gltTXgtxPYkwOB--57" value="合上上盖" style="rounded=1;whiteSpace=wrap;html=1;" vertex="1" parent="WIyWlLk6GJQsqaUBKTNV-1">
          <mxGeometry x="160" y="1640" width="120" height="60" as="geometry" />
        </mxCell>
        <mxCell id="2HKD_gltTXgtxPYkwOB--61" style="edgeStyle=orthogonalEdgeStyle;rounded=0;orthogonalLoop=1;jettySize=auto;html=1;exitX=0.5;exitY=0;exitDx=0;exitDy=0;entryX=0;entryY=0;entryDx=0;entryDy=0;" edge="1" parent="WIyWlLk6GJQsqaUBKTNV-1" source="2HKD_gltTXgtxPYkwOB--59" target="2HKD_gltTXgtxPYkwOB--54">
          <mxGeometry relative="1" as="geometry">
            <Array as="points">
              <mxPoint x="60" y="1410" />
              <mxPoint x="193" y="1410" />
            </Array>
          </mxGeometry>
        </mxCell>
        <mxCell id="2HKD_gltTXgtxPYkwOB--59" value="继续计时" style="rounded=1;whiteSpace=wrap;html=1;" vertex="1" parent="WIyWlLk6GJQsqaUBKTNV-1">
          <mxGeometry y="1430" width="120" height="60" as="geometry" />
        </mxCell>
        <mxCell id="2HKD_gltTXgtxPYkwOB--69" style="edgeStyle=orthogonalEdgeStyle;rounded=0;orthogonalLoop=1;jettySize=auto;html=1;exitX=0.5;exitY=1;exitDx=0;exitDy=0;entryX=1;entryY=0.5;entryDx=0;entryDy=0;" edge="1" parent="WIyWlLk6GJQsqaUBKTNV-1" source="2HKD_gltTXgtxPYkwOB--64" target="2HKD_gltTXgtxPYkwOB--6">
          <mxGeometry relative="1" as="geometry">
            <mxPoint x="445" y="380" as="targetPoint" />
          </mxGeometry>
        </mxCell>
        <mxCell id="2HKD_gltTXgtxPYkwOB--73" value="yes" style="edgeLabel;html=1;align=center;verticalAlign=middle;resizable=0;points=[];" vertex="1" connectable="0" parent="2HKD_gltTXgtxPYkwOB--69">
          <mxGeometry x="-0.787" y="1" relative="1" as="geometry">
            <mxPoint x="-1" y="-5" as="offset" />
          </mxGeometry>
        </mxCell>
        <mxCell id="2HKD_gltTXgtxPYkwOB--71" value="no" style="edgeStyle=orthogonalEdgeStyle;rounded=0;orthogonalLoop=1;jettySize=auto;html=1;exitX=1;exitY=0.5;exitDx=0;exitDy=0;entryX=1;entryY=0.5;entryDx=0;entryDy=0;" edge="1" parent="WIyWlLk6GJQsqaUBKTNV-1" source="2HKD_gltTXgtxPYkwOB--64" target="2HKD_gltTXgtxPYkwOB--2">
          <mxGeometry x="-0.3333" relative="1" as="geometry">
            <Array as="points">
              <mxPoint x="550" y="300" />
              <mxPoint x="550" y="180" />
            </Array>
            <mxPoint as="offset" />
          </mxGeometry>
        </mxCell>
        <mxCell id="2HKD_gltTXgtxPYkwOB--64" value="脚踢开关触发?" style="rhombus;whiteSpace=wrap;html=1;flipH=1;flipV=0;" vertex="1" parent="WIyWlLk6GJQsqaUBKTNV-1">
          <mxGeometry x="390" y="260" width="110" height="80" as="geometry" />
        </mxCell>
      </root>
    </mxGraphModel>
  </diagram>
</mxfile>
